<svg xmlns="http://www.w3.org/2000/svg" id="prefix__announcement" width="19" height="15.523" viewBox="0 0 19 15.523">
    <defs>
        <style>
            .prefix__cls-1{fill:#272454}
        </style>
    </defs>
    <g id="prefix__그룹_477" data-name="그룹 477" transform="translate(0 1.689)">
        <g id="prefix__그룹_476" data-name="그룹 476">
            <path id="prefix__패스_780" d="M12.377 88.781a13.155 13.155 0 011.245-5.954 23.679 23.679 0 01-10.581 2.724A3.266 3.266 0 00.33 87.379a3.169 3.169 0 00-.012 2.8 3.07 3.07 0 002.723 1.831c.189 0 .415 0 .666.009a3.817 3.817 0 002.529 4.29 4.764 4.764 0 001.788.351 4.5 4.5 0 001.382-.215 3.642 3.642 0 002.244-1.908 3.218 3.218 0 00.213-.649c.578.25 1.166.531 1.761.85a13.15 13.15 0 01-1.247-5.957zm-1.5 5.444A2.831 2.831 0 019.132 95.7a3.761 3.761 0 01-2.561-.114 3.02 3.02 0 01-2.012-3.521 22.867 22.867 0 016.519 1.5 2.475 2.475 0 01-.2.659z" class="prefix__cls-1" data-name="패스 780" transform="translate(.001 -82.827)"/>
        </g>
    </g>
    <g id="prefix__그룹_479" data-name="그룹 479" transform="translate(12.379)">
        <g id="prefix__그룹_478" data-name="그룹 478">
            <path id="prefix__패스_781" d="M320.647 43.253c-1.39 0-2.586 1.781-3.143 4.348a3.23 3.23 0 110 6.455c.557 2.568 1.753 4.348 3.143 4.348 1.921 0 3.478-3.392 3.478-7.576s-1.557-7.575-3.478-7.575z" class="prefix__cls-1" data-name="패스 781" transform="translate(-317.504 -43.253)"/>
        </g>
    </g>
</svg>
