<svg xmlns="http://www.w3.org/2000/svg" id="magnifying-glass" width="13" height="12.803" viewBox="0 0 13 12.803">
    <defs>
        <style>
            .cls-1{fill:#5ebfc6}
        </style>
    </defs>
    <path id="패스_536" d="M23.841 22.894l-3.125-3.078a5.327 5.327 0 0 0 1.242-3.42 5.479 5.479 0 1 0-5.479 5.4 5.5 5.5 0 0 0 3.47-1.22l3.125 3.075a.547.547 0 0 0 .767 0 .524.524 0 0 0 0-.757zm-7.362-2.177a4.324 4.324 0 1 1 4.39-4.317 4.361 4.361 0 0 1-4.39 4.317z" class="cls-1" data-name="패스 536" transform="translate(-11 -11)"/>
</svg>
